<?xml version="1.0" standalone="no"?>
<!DOCTYPE svg PUBLIC "-//W3C//DTD SVG 20010904//EN"
 "http://www.w3.org/TR/2001/REC-SVG-20010904/DTD/svg10.dtd">
<svg version="1.0" xmlns="http://www.w3.org/2000/svg"
 width="1024.000000pt" height="1024.000000pt" viewBox="0 0 1024.000000 1024.000000"
 preserveAspectRatio="xMidYMid meet">
<metadata>
Created by potrace 1.15, written by Peter Selinger 2001-2017
</metadata>
<g transform="translate(0.000000,1024.000000) scale(0.100000,-0.100000)"
fill="#000000" stroke="none">
<path d="M5580 9474 c-96 -18 -569 -107 -1050 -198 -481 -91 -1030 -194 -1220
-230 -190 -36 -669 -126 -1065 -201 -396 -75 -936 -177 -1200 -226 -264 -49
-488 -92 -497 -95 -17 -5 -18 -176 -18 -3405 0 -1869 2 -3399 5 -3399 5 0 891
-166 1305 -245 157 -30 623 -117 1035 -195 413 -78 878 -165 1035 -195 825
-157 1829 -345 1839 -345 8 0 11 260 11 945 l0 945 1795 0 c1280 0 1809 3
1847 11 118 25 214 91 279 192 74 114 69 -46 69 2285 0 1362 -4 2108 -10 2142
-31 161 -154 294 -314 336 -42 11 -359 14 -1858 14 l-1808 0 -2 948 -3 948
-175 -32z m3880 -2247 l0 -93 -572 -460 c-1754 -1407 -2051 -1644 -2057 -1644
-4 0 -247 195 -541 433 l-535 434 -3 711 -2 712 1855 0 1855 0 0 -93z m0
-2357 l0 -1940 -1855 0 -1855 0 0 1320 c0 726 2 1320 5 1320 5 0 279 -221 798
-642 114 -93 221 -174 237 -180 59 -20 94 -3 253 126 84 67 472 378 862 691
391 314 899 722 1130 907 231 186 421 338 423 338 1 0 2 -873 2 -1940z m-6231
1830 c117 -15 199 -39 300 -86 377 -177 631 -582 695 -1109 31 -255 16 -597
-36 -820 -115 -497 -420 -867 -812 -985 -113 -34 -180 -43 -316 -43 -381 0
-676 148 -907 453 -70 93 -166 279 -208 404 -85 252 -113 604 -74 936 62 529
330 959 714 1146 183 89 440 130 644 104z"/>
<path d="M2882 6110 c-141 -38 -238 -112 -326 -247 -122 -189 -173 -424 -163
-753 10 -332 80 -544 233 -710 98 -105 205 -157 349 -167 302 -21 519 193 607
599 19 89 22 134 22 333 0 198 -3 245 -22 341 -53 264 -151 444 -299 545 -103
71 -268 96 -401 59z"/>
</g>
</svg>
